<?xml version="1.0" encoding="UTF-8" standalone="no"?><!DOCTYPE svg PUBLIC "-//W3C//DTD SVG 1.1//EN" "http://www.w3.org/Graphics/SVG/1.1/DTD/svg11.dtd"><svg width="16px" height="16px" viewBox="0 0 16 16" version="1.1" xmlns="http://www.w3.org/2000/svg" xmlns:xlink="http://www.w3.org/1999/xlink" xml:space="preserve" xmlns:serif="http://www.serif.com/" style="fill-rule:evenodd;clip-rule:evenodd;stroke-linejoin:round;stroke-miterlimit:2;"><path d="M15.955,7.978c0,4.406 -3.571,7.977 -7.977,7.977c-4.407,0 -7.978,-3.571 -7.978,-7.977c0,-4.407 3.571,-7.978 7.978,-7.978c4.406,0 7.977,3.571 7.977,7.978Z" style="fill:#a6ce39;fill-rule:nonzero;"/><g><path d="M5.379,11.605l-0.96,0l-0,-6.675l0.96,-0l-0,6.675Z" style="fill:#fff;fill-rule:nonzero;"/><path d="M6.787,4.93l2.593,-0c2.468,-0 3.553,1.764 3.553,3.341c-0,1.714 -1.34,3.34 -3.54,3.34l-2.606,0l0,-6.681Zm0.96,5.815l1.527,0c2.175,0 2.674,-1.652 2.674,-2.474c-0,-1.34 -0.854,-2.475 -2.724,-2.475l-1.477,0l0,4.949Z" style="fill:#fff;fill-rule:nonzero;"/><path d="M5.528,3.54c0,0.343 -0.28,0.63 -0.629,0.63c-0.349,-0 -0.63,-0.287 -0.63,-0.63c0,-0.349 0.281,-0.629 0.63,-0.629c0.349,-0 0.629,0.286 0.629,0.629Z" style="fill:#fff;fill-rule:nonzero;"/></g></svg>
