<svg xmlns="http://www.w3.org/2000/svg" width="100%" height="100%" viewBox="0 0 9634 2264"><path d="M0 2263.82h150.603v-659.784c100.402 112.354 246.224 181.679 411.169 181.679 303.597 0 559.382-248.614 559.382-559.382 0-301.205-255.785-554.601-559.382-554.601C251.005 671.732 0 925.128 0 1226.333v1037.49zm145.822-1037.49c0-224.709 184.07-415.95 415.95-415.95 224.709 0 415.951 191.241 415.951 415.95 0 231.881-191.242 418.342-415.951 418.342-229.49 0-413.56-184.071-415.95-415.951v-2.391zM2139.52 671.736v659.784c-19.125 169.727-176.899 317.94-351.407 315.549-196.023 0-349.016-164.946-349.016-349.016V671.736h-138.65v626.317c-2.391 265.348 215.146 487.666 487.666 487.666 133.869 2.391 258.176-54.982 349.016-145.821v66.934c2.391 231.881-176.899 418.341-408.779 418.341-93.23 0-186.461-31.076-255.786-93.23l-83.668 114.745c90.84 78.887 215.147 117.136 339.454 117.136 308.377 0 554.601-248.615 554.601-556.992v-1035.1H2139.52z"/><path d="M2658.26 671.736H2522v1113.98h136.26v-757.795c0-124.307 100.402-219.928 219.928-219.928 121.916 0 229.49 95.621 229.49 219.928v757.795h136.259v-757.795c0-124.307 98.012-219.928 222.319-219.928 119.526 0 217.537 95.621 217.537 219.928v757.795h138.65v-757.795c0-198.413-157.774-356.188-356.187-356.188-121.917 0-227.1 57.373-291.644 148.213-66.934-90.84-176.898-148.213-296.424-148.213-83.669 0-160.165 28.687-219.928 76.497v-76.497zM5132.45 1785.72v-559.382c-4.781-301.205-265.348-554.601-568.944-554.601-310.768 0-561.772 253.396-561.772 554.601 0 310.768 251.004 559.382 561.772 559.382 164.946 0 317.939-74.106 420.732-188.851v188.851h148.212zm-568.944-141.04c-231.881 0-415.951-186.461-415.951-418.342 0-224.709 184.07-415.95 415.951-415.95 224.709 0 415.951 191.241 415.951 415.95 0 231.881-191.242 418.342-415.951 418.342zM5828.09 810.387V671.736h-346.626V0h-145.822v1307.62c0 265.348 227.1 480.495 492.448 478.104v-138.65c-184.07 0-346.626-155.384-346.626-339.454V810.392h346.626z" fill="#2e00ff"/><path d="M7037.69 1706.83c0 231.881-179.29 418.341-411.17 418.341-93.23 0-186.461-31.076-255.786-93.23l-83.668 114.745c90.84 78.887 215.147 117.136 339.454 117.136 320.33 0 556.991-241.443 556.991-556.992v-480.495c0-301.205-258.176-554.601-561.772-554.601-310.768 0-554.601 253.396-554.601 554.601 0 310.768 243.833 559.382 554.601 559.382 162.555 0 313.158-71.715 415.951-184.07v105.183zm-415.951-62.153c-231.881 0-415.951-186.461-415.951-418.342 0-224.709 184.07-415.95 415.951-415.95 224.709 0 415.951 191.241 415.951 415.95 0 231.881-191.242 418.342-415.951 418.342zM7886.33 1785.72c-308.378 0-559.382-248.614-559.382-556.991s251.004-556.992 559.382-556.992 559.382 248.615 559.382 556.992v69.325h-975.333c35.858 198.413 205.585 346.626 415.951 346.626h7.171c81.278 0 162.556-21.515 231.881-66.935l78.887 112.355c-93.23 64.544-200.804 95.62-310.768 95.62h-7.171zm411.169-628.707c-31.077-196.022-205.585-349.016-411.169-349.016-210.366 0-380.093 152.994-415.951 349.016h827.12zM9633.8 1159.4c0-265.348-217.538-487.667-490.057-487.667-133.869 0-258.177 57.373-349.016 148.213V671.733h-145.822v1113.98h145.822v-626.316c0-184.07 164.946-349.016 349.016-349.016 196.022 0 351.406 164.946 351.406 349.016v626.316H9633.8v-626.316z"/></svg>
